<svg xmlns="http://www.w3.org/2000/svg" width="200" height="240" viewBox="0 0 200 240" fill="none">
<!-- 文档主体 (半透明) -->
<g opacity="0.3">
<path d="M16.62 213.99C19.88 215.35 23.39 216.04 26.92 216.04L137.52 216.04C144.66 216.04 151.5 213.21 156.55 208.16C161.6 203.11 164.43 196.27 164.43 189.13L164.43 49.25L139.67 49.25C134.2 49.24 128.96 47.07 125.1 43.2C121.23 39.34 119.06 34.1 119.05 28.63L119.05 0L26.92 0C23.39 0 19.88 0.69 16.62 2.05C13.35 3.4 10.39 5.38 7.89 7.88C5.39 10.38 3.4 13.34 2.05 16.61C0.7 19.88 0 23.38 0 26.91L0 189.13C0 192.66 0.7 196.16 2.05 199.43C3.4 202.7 5.39 205.66 7.89 208.16C10.39 210.66 13.35 212.64 16.62 213.99Z" fill="#D20000"/>
</g>
<!-- 折角 -->
<path d="M164.43 49.25L139.67 49.25C134.2 49.24 128.96 47.07 125.1 43.2C121.23 39.34 119.06 34.1 119.05 28.63L119.05 0L164.43 49.25Z" fill="#D20000"/>
<!-- 文档内横线 -->
<path d="M133.25 82.64C132.55 83.34 131.59 83.73 130.6 83.73L27.36 83.73C26.37 83.73 25.42 83.34 24.72 82.63C24.01 81.93 23.62 80.98 23.62 79.99C23.62 79 24.01 78.04 24.72 77.34C25.42 76.64 26.37 76.24 27.36 76.24L130.6 76.24C131.59 76.24 132.55 76.64 133.25 77.34C133.96 78.04 134.35 79 134.35 79.99C134.35 80.98 133.95 81.93 133.25 82.64Z" fill="#D20000"/>
<path d="M27.36 98.61L130.6 98.61C131.59 98.61 132.55 99 133.25 99.71C133.96 100.41 134.35 101.37 134.35 102.36C134.35 103.35 133.95 104.3 133.25 105.01C132.55 105.71 131.59 106.1 130.6 106.1L27.36 106.1C26.37 106.1 25.42 105.71 24.72 105.01C24.01 104.3 23.62 103.35 23.62 102.36C23.62 101.37 24.01 100.41 24.72 99.71C25.42 99 26.37 98.61 27.36 98.61Z" fill="#D20000"/>
<path d="M133.25 127.37C132.55 128.08 131.59 128.47 130.6 128.47L27.36 128.47C26.37 128.47 25.42 128.08 24.72 127.37C24.01 126.67 23.62 125.72 23.62 124.72C23.62 123.73 24.01 122.78 24.72 122.08C25.42 121.37 26.37 120.98 27.36 120.98L130.6 120.98C131.59 120.98 132.55 121.37 133.25 122.08C133.95 122.78 134.35 123.73 134.35 124.72C134.35 125.72 133.96 126.67 133.25 127.37Z" fill="#D20000"/>
<path d="M24.72 144.45C25.42 143.74 26.37 143.35 27.36 143.35L89.86 143.35C90.85 143.35 91.8 143.74 92.5 144.45C93.21 145.15 93.6 146.1 93.6 147.09C93.6 148.08 93.21 149.03 92.5 149.74C91.8 150.44 90.85 150.84 89.86 150.84L27.36 150.84C26.37 150.84 25.42 150.44 24.72 149.74C24.01 149.03 23.62 148.08 23.62 147.09C23.62 146.1 24.01 145.15 24.72 144.45Z" fill="#D20000"/>
<!-- 底部标签圆角矩形 -->
<path d="M58.91 170.61L183.95 170.61C192.82 170.61 200.01 177.8 200.01 186.67L200.01 223.95C200.01 232.82 192.82 240.01 183.95 240.01L58.91 240.01C50.04 240.01 42.85 232.82 42.85 223.95L42.85 186.67C42.85 177.8 50.04 170.61 58.91 170.61Z" fill="#D20000"/>
<!-- 圆点 "." -->
<path d="M58 213.38L66 213.38L66 220.65L58 220.65Z" fill="#FFFFFF"/>
<!-- 字母 "P" -->
<path d="M75 190.58L98 190.58L98 196.58L83 196.58L83 203.58L95 203.58L95 209.58L83 209.58L83 220.65L75 220.65Z" fill="#FFFFFF"/>
<!-- 字母 "P" -->
<path d="M101 190.58L124 190.58L124 196.58L109 196.58L109 203.58L121 203.58L121 209.58L109 209.58L109 220.65L101 220.65Z" fill="#FFFFFF"/>
<!-- 字母 "T" -->
<path d="M127 190.58L150 190.58L150 196.58L139 196.58L139 220.65L127 220.65L127 196.58L116 196.58L116 190.58Z" fill="#FFFFFF"/>
</svg>
